<?xml version="1.0" encoding="utf-8"?>
<!-- Generator: Adobe Illustrator 18.1.1, SVG Export Plug-In . SVG Version: 6.00 Build 0)  -->
<svg version="1.1" id="Ebene_1" xmlns="http://www.w3.org/2000/svg" xmlns:xlink="http://www.w3.org/1999/xlink" x="0px" y="0px"
	 viewBox="0 0 291.4 199.5" enable-background="new 0 0 291.4 199.5" xml:space="preserve">
<g>
	<g>
		<path fill="#3C3C3B" d="M94.8,128.9h-25c-3.5,0-6-0.9-7.6-2.7c-2-2.2-1.7-5-1.7-5.1l0-11.7h1.6v11.8c0,0.1-0.2,2.3,1.3,3.9
			c1.3,1.4,3.4,2.1,6.4,2.1h25V128.9z"/>
	</g>
	<g>
		<path fill="#FFFFFF" d="M53.1,167.5c2.3-6.5,3.9-11.1,3.9-11.1s0.9-2.2-0.1-4.5s-8.3-15.5-9.7-18.3c-1.4-2.8-1-5.1-0.6-5.5
			c0,0-0.6-3.3,1.6-5.9c0.5-0.6,1.7-5.2,1.7-5.2s-1.5-5.5-1.7-7c-0.2-1.5,1.2-2.9,2.1-4c0.9-1.1,3.9-4.1,6.3-4
			c2.5,0.1,5.8,0.8,2.4,4.8c-0.6,0.6-2.1,1.1-2.5,1l-0.7,0.9c0,0,1,1.3,1.2,2.5c0,0,5.8,1.1,5.2,1c0,0,12.3,14,13.2,17.2
			c0.9,3.2,1.3,5.3,0.6,10.1c-0.6,4.8-0.6,16.9-0.6,16.9s-0.8,6.1-2.1,14.6"/>
	</g>
	<g>
		<g>
			<path fill="#3C3C3B" d="M73.4,171.1C73.4,171.1,73.3,171.1,73.4,171.1c-0.1,0-0.1-0.1-0.1-0.1c1.2-8.4,2.1-14.5,2.1-14.6
				c0-0.1-0.1-12.1,0.6-16.9c0.6-4.9,0.2-7.1-0.6-10.1c-0.8-3-12.6-16.5-13.1-17.1c-0.5-0.1-3.3-0.6-5.2-1c-0.1,0-0.1,0-0.1-0.1
				c-0.2-1.2-1.2-2.5-1.2-2.5c0,0,0-0.1,0-0.2l0.7-0.9c0,0,0.1-0.1,0.1,0c0.4,0.1,1.8-0.4,2.4-1c1.2-1.4,1.6-2.5,1.3-3.2
				c-0.3-0.8-1.6-1.2-3.6-1.3c0,0-0.1,0-0.1,0c-2.5,0-5.5,3.1-6.1,4c-0.1,0.2-0.3,0.3-0.4,0.5c-0.8,1-1.8,2.1-1.6,3.4
				c0.2,1.5,1.6,6.9,1.7,7c0,0,0,0,0,0.1c-0.1,0.2-1.3,4.6-1.8,5.3c-2.1,2.5-1.6,5.8-1.6,5.8c0,0,0,0.1,0,0.1
				c-0.3,0.3-0.8,2.6,0.6,5.3c0.5,1,1.7,3.2,3.1,5.8c2.7,4.9,6,11,6.6,12.5c1,2.3,0.1,4.5,0.1,4.6c0,0-1.6,4.6-3.9,11.1
				c0,0.1-0.1,0.1-0.2,0.1c-0.1,0-0.1-0.1-0.1-0.2c2.3-6.4,3.9-11,3.9-11.1c0,0,0.8-2.2-0.1-4.4c-0.6-1.5-3.9-7.6-6.6-12.5
				c-1.4-2.6-2.6-4.8-3.1-5.8c-1.4-2.7-1-5-0.7-5.6c-0.1-0.4-0.4-3.5,1.6-6c0.4-0.5,1.3-3.6,1.7-5.2c-0.1-0.5-1.5-5.5-1.7-7
				c-0.1-1.3,0.8-2.5,1.7-3.6c0.1-0.2,0.3-0.3,0.4-0.5c0.7-0.9,3.7-4.1,6.3-4.1c0,0,0.1,0,0.1,0c2.1,0.1,3.4,0.6,3.8,1.5
				c0.4,0.8-0.1,2-1.4,3.5c-0.6,0.6-2,1.1-2.6,1.1l-0.6,0.7c0.2,0.3,0.9,1.3,1.1,2.4c0.3,0.1,1.4,0.3,2.6,0.5
				c1.6,0.3,2.3,0.4,2.5,0.5c0,0,0,0,0,0c0,0,0,0,0,0c0,0,0.1,0,0.1,0h0c0,0,0,0,0,0c0.1,0,0.1,0.1,0.1,0.1
				c1.1,1.3,12.3,14.1,13.1,17.2c0.8,3,1.3,5.2,0.6,10.2c-0.6,4.8-0.6,16.7-0.6,16.9c0,0.1-0.9,6.2-2.1,14.6
				C73.5,171.1,73.4,171.1,73.4,171.1z"/>
		</g>
	</g>
	<g>
		<g>
			<path fill="#FFFFFF" d="M61.3,98.2c0,0,2.1,0,2.8,0c0.7,0,0.8,0.8,0.8,0.8l0,4l-0.6,0l0,2.4l-0.4,0l0,1l0.4,0c0,0,0,1,0,1.6
				c0,0.6-0.6,0.6-0.6,0.6l-2.4,0l-2.4,0c0,0-0.6,0-0.6-0.6c0-0.6,0-1.6,0-1.6l0.4,0l0-1l-0.4,0l0-2.5l-0.6,0l0-4c0,0,0-0.8,0.8-0.8
				C59.2,98.2,61.3,98.2,61.3,98.2"/>
		</g>
	</g>
	<g>
		<g>
			<path fill="#3C3C3B" d="M63.7,108.9l-4.8,0c0,0,0,0,0,0c-0.1,0-0.4,0-0.6-0.2c-0.1-0.1-0.2-0.3-0.2-0.5l0-1.7l0.4,0l0-0.8l-0.4,0
				l0-2.5l-0.6,0l0-4.1c0-0.3,0.2-0.9,0.9-0.9c0.7,0,2.8,0,2.8,0l2.8,0c0.7,0,0.9,0.6,0.9,0.9l0,4.2l-0.6,0l0,2.4l-0.4,0l0,0.8
				l0.4,0l0,1.7C64.4,108.7,64,108.9,63.7,108.9z M58.3,106.6l0,1.5c0,0.1,0,0.3,0.1,0.3c0.1,0.1,0.3,0.1,0.4,0.1l4.8,0l0,0.1v-0.1
				c0.2,0,0.5-0.1,0.5-0.5l0-1.5l-0.4,0l0-1.3l0.4,0l0-2.4l0.6,0l0-3.9c0,0,0-0.7-0.7-0.7l-2.8,0c0,0-2.1,0-2.8,0
				c-0.6,0-0.7,0.6-0.7,0.7l0,3.9l0.6,0l0,2.5l0.4,0l0,1.3L58.3,106.6z"/>
		</g>
	</g>
	<g>
		<path fill="#FFFFFF" d="M59.5,108.7l0.4,2.5c0,0.2,0.2,0.3,0.4,0.3l2,0c0.2,0,0.3-0.1,0.3-0.3l0.2-2.4"/>
	</g>
	<g>
		<path fill="#FFFFFF" d="M59.5,108.7l0.4,2.5c0,0.2,0.2,0.3,0.4,0.3l2,0c0.2,0,0.3-0.1,0.3-0.3l0.2-2.4"/>
	</g>
	<g>
		<g>
			<path fill="#3C3C3B" d="M60.2,111.6c-0.2,0-0.4-0.2-0.5-0.4l-0.4-2.5l0.2,0l0.4,2.5c0,0.1,0.1,0.2,0.2,0.2c0,0,0,0,0,0l2,0
				c0.1,0,0.2-0.1,0.2-0.2l0.2-2.4l0.2,0l-0.2,2.4c0,0.2-0.2,0.4-0.5,0.4L60.2,111.6C60.2,111.6,60.2,111.6,60.2,111.6z"/>
		</g>
	</g>
</g>
<line fill="none" stroke="#575756" stroke-width="0.205" stroke-miterlimit="10" x1="63.2" y1="108.7" x2="59.5" y2="108.7"/>
<g>
	<g>
		<path fill="#3C3C3B" d="M64.3,98.2l-0.3,0c0,0,0-2.1,0-2.6c0-0.3-0.3-0.4-0.4-0.4l-4.4,0c0,0,0,0,0,0c-0.3,0-0.3,0.3-0.3,0.4
			l0,2.6l-0.3,0l0-2.6c0-0.2,0.2-0.7,0.7-0.7c0,0,0,0,0,0l4.4,0c0,0,0.2,0,0.3,0.1c0.2,0.1,0.4,0.3,0.4,0.6
			C64.3,96.2,64.3,98.2,64.3,98.2z"/>
	</g>
	<g>
		<path fill="#3C3C3B" d="M62.5,105.7l-2.6,0c-0.2,0-0.4-0.2-0.4-0.5c0-0.2,0.2-0.4,0.5-0.4c0,0,0,0,0,0l2.6,0
			c0.2,0,0.4,0.2,0.4,0.5v0C63,105.5,62.8,105.7,62.5,105.7z M60,105.1c-0.1,0-0.2,0.1-0.2,0.2c0,0.1,0.1,0.2,0.2,0.2l2.6,0
			c0.1,0,0.2-0.1,0.2-0.2c0-0.1-0.1-0.2-0.2-0.2L60,105.1C60,105.1,60,105.1,60,105.1z M62.5,104.7
			C62.5,104.7,62.5,104.7,62.5,104.7l-2.6,0c-0.2,0-0.4-0.2-0.4-0.5c0-0.2,0.2-0.4,0.5-0.4c0,0,0,0,0,0l2.6,0c0.2,0,0.4,0.2,0.4,0.5
			v0C63,104.5,62.8,104.7,62.5,104.7z M60,104.1c-0.1,0-0.2,0.1-0.2,0.2c0,0.1,0.1,0.2,0.2,0.2l2.6,0c0,0,0,0,0,0
			c0.1,0,0.2-0.1,0.2-0.2c0-0.1-0.1-0.2-0.2-0.2L60,104.1C60,104.1,60,104.1,60,104.1z M62.6,103.7
			C62.6,103.7,62.5,103.7,62.6,103.7l-2.6,0c-0.2,0-0.4-0.2-0.4-0.5c0-0.2,0.2-0.4,0.5-0.4l2.6,0c0.2,0,0.4,0.2,0.4,0.5v0
			C63,103.5,62.8,103.7,62.6,103.7z M60,103.1c-0.1,0-0.2,0.1-0.2,0.2c0,0.1,0.1,0.2,0.2,0.2l2.6,0c0,0,0,0,0,0
			c0.1,0,0.2-0.1,0.2-0.2c0-0.1-0.1-0.2-0.2-0.2L60,103.1z M63.5,98.2l-0.2,0l0-3.1l0.2,0L63.5,98.2z M59.6,98.2l-0.2,0l0-3.1l0.2,0
			L59.6,98.2z"/>
	</g>
	<path fill="#FFFFFF" d="M57,111.1c0,0,0.3,2.4,0.2,3c0,0,3.3,3.3,3.5,3.8c0,0,6.4,4.8,7.4,6.2"/>
	<g>
		<path fill="#3C3C3B" d="M68.1,124.2c0,0-0.1,0-0.1-0.1c-0.9-1.4-7.3-6.1-7.4-6.2c0,0,0,0,0-0.1c-0.1-0.3-2.2-2.4-3.5-3.7
			c0,0,0-0.1,0-0.1c0.1-0.6-0.2-3-0.2-3c0-0.1,0-0.1,0.1-0.1c0.1,0,0.1,0,0.1,0.1c0,0.1,0.3,2.3,0.2,3c0.5,0.5,3.2,3.2,3.5,3.7
			c0.5,0.4,6.5,4.8,7.4,6.2C68.2,124.1,68.2,124.2,68.1,124.2C68.1,124.2,68.1,124.2,68.1,124.2z"/>
	</g>
	<path fill="#FFFFFF" d="M62,118.3c0,0,0.6-0.9,0.6-1 M58.4,114.7c0,0-0.3-1-0.4-1.5 M49.8,134.6l4.6,6.2 M53.1,130.1l4.3,9.7
		 M46.6,128.1c0,0,0.4,1.2,1.4,1.7 M50,120.1c0,0,0.1,2.2,1.1,2.5 M55.8,108.6c0,0-0.4-1.7-1.6-2.4 M56.5,107.7c0,0,0.2-1.3,0.1-2"
		/>
	<g>
		<path fill="#3C3C3B" d="M54.4,140.9c0,0-0.1,0-0.1-0.1l-4.6-6.2c0-0.1,0-0.1,0-0.2c0.1,0,0.1,0,0.2,0l4.6,6.2
			C54.5,140.8,54.5,140.8,54.4,140.9C54.4,140.9,54.4,140.9,54.4,140.9z M57.4,139.9c0,0-0.1,0-0.1-0.1l-4.3-9.7
			c0-0.1,0-0.1,0.1-0.2c0.1,0,0.1,0,0.2,0.1l4.3,9.7C57.5,139.8,57.5,139.8,57.4,139.9C57.4,139.9,57.4,139.9,57.4,139.9z M48,129.9
			C48,129.9,47.9,129.9,48,129.9c-1-0.6-1.5-1.8-1.5-1.8c0-0.1,0-0.1,0.1-0.2c0.1,0,0.1,0,0.2,0.1c0,0,0.4,1.2,1.3,1.6
			c0.1,0,0.1,0.1,0,0.2C48.1,129.9,48,129.9,48,129.9z M51.1,122.7C51.1,122.7,51.1,122.7,51.1,122.7c-1.2-0.3-1.2-2.5-1.2-2.6
			c0-0.1,0.1-0.1,0.1-0.1c0.1,0,0.1,0.1,0.1,0.1c0,0,0.1,2.1,1,2.4c0.1,0,0.1,0.1,0.1,0.2C51.2,122.7,51.1,122.7,51.1,122.7z
			 M62,118.4C62,118.4,62,118.4,62,118.4c-0.1-0.1-0.1-0.1-0.1-0.2c0.3-0.4,0.6-0.8,0.6-0.9c0-0.1,0.1-0.1,0.1-0.1
			c0.1,0,0.1,0.1,0.1,0.1c0,0,0,0.2-0.6,1.1C62.1,118.4,62.1,118.4,62,118.4z M58.4,114.8c-0.1,0-0.1,0-0.1-0.1c0,0-0.3-1-0.4-1.5
			c0-0.1,0-0.1,0.1-0.1c0.1,0,0.1,0,0.1,0.1c0.1,0.5,0.3,1.5,0.4,1.5C58.6,114.7,58.6,114.8,58.4,114.8
			C58.5,114.8,58.5,114.8,58.4,114.8z M55.8,108.7c-0.1,0-0.1,0-0.1-0.1c0,0-0.4-1.6-1.5-2.3c-0.1,0-0.1-0.1,0-0.2
			c0-0.1,0.1-0.1,0.2,0c1.2,0.8,1.6,2.4,1.6,2.5C55.9,108.6,55.9,108.7,55.8,108.7C55.8,108.7,55.8,108.7,55.8,108.7z M56.5,107.9
			C56.5,107.9,56.5,107.9,56.5,107.9c-0.1,0-0.1-0.1-0.1-0.1c0,0,0.2-1.3,0.1-2c0-0.1,0-0.1,0.1-0.1c0.1,0,0.1,0,0.1,0.1
			c0.2,0.8-0.1,2-0.1,2.1C56.6,107.8,56.6,107.9,56.5,107.9z"/>
	</g>
	<path fill="#FFFFFF" d="M74.8,128.1c-1-1.8-5.1-14.5-5.1-14.5c0-1.2-1-6.2-1-6.2s0.1-2.3-0.1-3.6c-0.2-1.5-0.4-1.9-3.1-1.7
		c-4.2,0.6-3.6,10.4-3.6,10.4s1.3,6.5,1.7,7.1c0,0,0.2,0.6-0.5,0.2"/>
	<g>
		<path fill="#3C3C3B" d="M74.8,128.3c0,0-0.1,0-0.1-0.1c-0.9-1.8-4.9-14-5.1-14.5c0,0,0,0,0,0c0-1.2-0.9-6.1-0.9-6.2
			c0-0.1,0.1-2.3-0.1-3.6c-0.2-1.4-0.3-1.8-3-1.6c-4,0.6-3.5,10.2-3.5,10.3c0.5,2.2,1.4,6.6,1.7,7.1c0,0.1,0.1,0.3-0.1,0.5
			c-0.2,0.1-0.4,0-0.6-0.1c-0.1,0-0.1-0.1,0-0.2c0-0.1,0.1-0.1,0.2,0c0.3,0.2,0.3,0.2,0.3,0.2c0,0,0-0.1,0-0.2
			c-0.3-0.6-1.6-6.9-1.7-7.1c0-0.4-0.6-9.9,3.7-10.5c2.8-0.3,3,0.2,3.2,1.8c0.2,1.3,0.1,3.5,0.1,3.6c0,0.2,0.9,4.9,1,6.2
			c0.2,0.6,4.1,12.7,5.1,14.5C75,128.1,74.9,128.2,74.8,128.3C74.9,128.3,74.8,128.3,74.8,128.3z"/>
	</g>
	<path fill="#FFFFFF" d="M64,119.9c0,0,1.3,0.8,1.5,0.8 M69.5,113.2c0,0,0.1,0.1-1-0.1 M69.3,111.3c-0.3-0.2-0.5,0.1-1.1,0.1
		 M68.8,107.4c-0.4,0.3-2,0-2.7,0c-0.7-0.1-1.1-2.8-1.1-3.7c0.8-0.7,2.2-1.1,3.2-1.2"/>
	<g>
		<path fill="#3C3C3B" d="M65.5,120.9C65.5,120.9,65.4,120.9,65.5,120.9c-0.2-0.1-1.3-0.7-1.5-0.8c-0.1,0-0.1-0.1,0-0.2
			c0-0.1,0.1-0.1,0.2,0c0.5,0.3,1.3,0.8,1.4,0.8c0.1,0,0.1,0.1,0.1,0.2C65.6,120.8,65.5,120.9,65.5,120.9z M69.3,113.4
			c-0.2,0-0.4,0-0.9-0.1c-0.1,0-0.1-0.1-0.1-0.1c0-0.1,0.1-0.1,0.1-0.1c0.6,0.1,0.8,0.1,0.9,0.1c0,0,0.1,0,0.2,0c0,0,0,0.1,0,0.2
			C69.5,113.3,69.5,113.4,69.3,113.4z M68.2,111.5c-0.1,0-0.1-0.1-0.1-0.1s0.1-0.1,0.1-0.1c0.2,0,0.4-0.1,0.6-0.1
			c0.2-0.1,0.4-0.1,0.6,0c0.1,0,0.1,0.1,0,0.2c0,0.1-0.1,0.1-0.2,0c-0.1-0.1-0.2,0-0.4,0C68.7,111.5,68.5,111.5,68.2,111.5z
			 M68,107.7c-0.5,0-1.1-0.1-1.8-0.1l-0.2,0c-0.8-0.1-1.3-3-1.2-3.8c0,0,0-0.1,0-0.1c0.7-0.7,2.2-1.1,3.2-1.2c0.1,0,0.1,0,0.1,0.1
			c0,0.1,0,0.1-0.1,0.1c-1,0.1-2.4,0.5-3.1,1.1c-0.1,1,0.5,3.4,1,3.5l0.2,0c0.6,0.1,2.1,0.3,2.4,0c0.1,0,0.1,0,0.2,0
			c0,0.1,0,0.1,0,0.2C68.7,107.6,68.4,107.7,68,107.7z"/>
	</g>
</g>
<g>
	<g>
		<path fill="#3C3C3B" d="M0,0v93.4h44.7h5.4h44.7V0H0z M34.7,67.7H32v-5.3h-6.8V31.1h2.7v28.6H32V31.1h2.7V67.7z M47.4,46.7h-2.7
			V33.6h-4.1v26h6.8v2.7h-9.5V31.1h9.5V46.7z M57.7,33.6h-4.5v26h4.5v2.7h-7V25.9h2.6v5.2h4.5V33.6z M69.3,62.3h-9.5V31.1h2.7v28.6
			h4.1V31.1h2.7V62.3z"/>
	</g>
</g>
<g>
	<g>
		<path fill="#FFFFFF" d="M106.2,128.2c0,0,0,2.1,0,2.8c0,0.7-0.8,0.8-0.8,0.8l-4,0l0-0.6l-2.4,0l0-0.4l-1,0l0,0.4c0,0-1,0-1.6,0
			c-0.6,0-0.6-0.6-0.6-0.6l0-2.4l0-2.4c0,0,0-0.6,0.6-0.6c0.6,0,1.6,0,1.6,0l0,0.4l1,0l0-0.4l2.5,0l0-0.6l4,0c0,0,0.8,0,0.8,0.8
			C106.2,126.2,106.2,128.2,106.2,128.2"/>
	</g>
	<g>
		<path fill="#3C3C3B" d="M105.4,132L105.4,132l-4.1,0l0-0.6l-2.4,0l0-0.4l-0.8,0l0,0.4l-1.7,0c-0.2,0-0.4-0.1-0.5-0.2
			c-0.2-0.2-0.2-0.6-0.2-0.6l0-4.8c0,0,0-0.3,0.2-0.6c0.1-0.1,0.3-0.2,0.5-0.2l1.7,0l0,0.4l0.8,0l0-0.4l2.5,0l0-0.6l4.1,0
			c0.3,0,0.9,0.2,0.9,0.9c0,0.7,0,2.8,0,2.8l0,2.8C106.3,131.7,105.7,131.9,105.4,132L105.4,132z M101.5,131.7l3.9,0
			c0.1,0,0.7-0.1,0.7-0.7l0-2.8c0,0,0-2.1,0-2.8c0-0.6-0.6-0.7-0.7-0.7l-3.9,0l0,0.6l-2.5,0l0,0.4l-1.3,0l0-0.4l-1.5,0l0,0
			c-0.2,0-0.3,0-0.4,0.1c-0.1,0.1-0.1,0.4-0.1,0.4l0,4.8c0,0,0,0.2,0.1,0.4c0.1,0.1,0.2,0.1,0.4,0.1l1.5,0l0-0.4l1.3,0l0,0.4l2.4,0
			L101.5,131.7z"/>
	</g>
	<path fill="#FFFFFF" d="M95.7,126.5l-2.5,0.4c-0.2,0-0.3,0.2-0.3,0.4l0,2c0,0.2,0.1,0.3,0.3,0.3l2.4,0.2"/>
	<g>
		<path fill="#3C3C3B" d="M95.7,129.9l-2.4-0.2c-0.2,0-0.4-0.2-0.4-0.5l0-2c0-0.2,0.2-0.5,0.4-0.5l2.5-0.4l0,0.2l-2.5,0.4
			c-0.1,0-0.2,0.1-0.2,0.2l0,2c0,0.1,0.1,0.2,0.2,0.2l2.4,0.2L95.7,129.9z"/>
	</g>
</g>
<line fill="none" stroke="#575756" stroke-width="0.205" stroke-miterlimit="10" x1="95.6" y1="130.1" x2="95.7" y2="126.5"/>
<g>
	<g>
		<path fill="#575756" d="M108.7,131.3C108.7,131.3,108.7,131.3,108.7,131.3c-0.5,0-2.6,0-2.6,0l0-0.3c0,0,2.1,0,2.6,0c0,0,0,0,0,0
			c0.4,0,0.4-0.3,0.4-0.4l0-4.4c0-0.3-0.3-0.3-0.4-0.3l-2.6,0l0-0.3l2.6,0c0.2,0,0.7,0.2,0.7,0.7l0,4.4
			C109.4,130.8,109.3,131.3,108.7,131.3z"/>
	</g>
	<g>
		<path fill="#3C3C3B" d="M109.3,130.4l-3.1,0l0-0.2l3.1,0L109.3,130.4z M101.1,129.9L101.1,129.9c-0.2,0-0.4-0.2-0.4-0.5l0-2.6
			c0-0.2,0.2-0.4,0.5-0.4c0.2,0,0.4,0.2,0.4,0.5l0,2.6C101.5,129.7,101.3,129.9,101.1,129.9z M101.1,126.7c-0.1,0-0.2,0.1-0.2,0.2
			l0,2.6c0,0.1,0.1,0.2,0.2,0.2c0.1,0,0.2-0.1,0.2-0.2l0-2.6C101.3,126.8,101.2,126.7,101.1,126.7z M100.1,129.9L100.1,129.9
			c-0.2,0-0.4-0.2-0.4-0.5l0-2.6c0-0.2,0.2-0.4,0.5-0.4c0.1,0,0.2,0,0.3,0.1c0.1,0.1,0.1,0.2,0.1,0.3l0,2.6
			C100.5,129.7,100.3,129.9,100.1,129.9z M100.1,126.7c-0.1,0-0.2,0.1-0.2,0.2l0,2.6c0,0.1,0.1,0.2,0.2,0.2c0.1,0,0.2-0.1,0.2-0.2
			l0-2.6c0-0.1,0-0.1-0.1-0.1S100.2,126.7,100.1,126.7z M99.1,129.9L99.1,129.9c-0.2,0-0.4-0.2-0.4-0.5l0-2.6c0-0.2,0.2-0.4,0.5-0.4
			c0.2,0,0.4,0.2,0.4,0.5l0,2.6C99.6,129.7,99.4,129.9,99.1,129.9z M99.1,126.7c-0.1,0-0.2,0.1-0.2,0.2l0,2.6c0,0.1,0.1,0.2,0.2,0.2
			c0.1,0,0.2-0.1,0.2-0.2l0-2.6C99.3,126.8,99.2,126.7,99.1,126.7z M109.3,126.6l-3.1,0l0-0.2l3.1,0L109.3,126.6z"/>
	</g>
</g>
<g>
	<path fill="#3C3C3B" d="M291.4,186.5H106.7V73.4h184.7V186.5z M112.5,180.8h173.2V79.1H112.5V180.8z"/>
</g>
<g>
	<g>
		<rect x="192.6" y="188.1" fill="#3C3C3B" width="12.9" height="9.6"/>
	</g>
</g>
<g>
	<g>
		<g>
			<path fill="#3C3C3B" d="M241.9,194.6h-85.7c-1.4,0-2.5,1.1-2.5,2.5s1.1,2.5,2.5,2.5h85.7c1.4,0,2.5-1.1,2.5-2.5
				S243.3,194.6,241.9,194.6z"/>
		</g>
	</g>
</g>
</svg>
