<?xml version="1.0" encoding="utf-8"?>
<!-- Generator: Adobe Illustrator 16.0.4, SVG Export Plug-In . SVG Version: 6.00 Build 0)  -->
<!DOCTYPE svg PUBLIC "-//W3C//DTD SVG 1.1//EN" "http://www.w3.org/Graphics/SVG/1.1/DTD/svg11.dtd">
<svg version="1.1" xmlns="http://www.w3.org/2000/svg" xmlns:xlink="http://www.w3.org/1999/xlink" x="0px" y="0px" width="56px"
	 height="56px" viewBox="0 0 56 56" enable-background="new 0 0 56 56" xml:space="preserve">
<g id="Layer_1">
</g>
<g id="bg">
</g>
<g id="Layer_3">
</g>
<g id="search">
</g>
<g id="New_Symbol">
</g>
<g id="logo">
	<g>
		<polygon fill="#139820" points="50.016,9.345 50.016,43.939 45.063,43.939 45.063,9.345 42.586,9.345 42.586,46.417
			52.493,46.417 52.493,9.345 		"/>
		<polygon fill="#139820" points="17.235,9.345 17.235,46.417 27.143,46.417 27.143,43.939 19.711,43.939 19.711,11.823
			24.665,11.823 24.665,27.766 27.143,27.766 27.143,9.345 		"/>
		<polygon fill="#139820" points="10.679,43.939 5.725,43.939 5.725,9.345 3.249,9.345 3.249,46.417 10.679,46.417 10.679,52.763
			13.156,52.763 13.156,9.345 10.679,9.345 		"/>
		<polygon fill="#139820" points="33.698,3 31.221,3 31.221,46.417 39.89,46.417 39.89,43.938 33.698,43.938 33.698,11.823
			39.89,11.823 39.89,9.346 33.698,9.346 		"/>
	</g>
</g>
<g id="tile_content">
</g>
<g id="Isolation_Mode">
	<g id="icon_house_filled" opacity="0.5">
	</g>
</g>
<g id="content">
</g>
<g id="control_center">
</g>
<g id="New_Symbol_1">
</g>
</svg>
