<?xml version="1.0" encoding="utf-8"?>
<!-- Generator: Adobe Illustrator 18.1.1, SVG Export Plug-In . SVG Version: 6.00 Build 0)  -->
<svg version="1.1" id="Ebene_1" xmlns:sketch="http://www.bohemiancoding.com/sketch/ns"
	 xmlns="http://www.w3.org/2000/svg" xmlns:xlink="http://www.w3.org/1999/xlink" x="0px" y="0px" viewBox="44.5 -0.5 15 15"
	 enable-background="new 44.5 -0.5 15 15" xml:space="preserve">
<g id="Page-1" sketch:type="MSPage">
	<g id="icons" transform="translate(-360.000000, -660.000000)" sketch:type="MSArtboardGroup">
		<path id="Path" sketch:type="MSShapeGroup" fill="#666666" d="M407.2,667.6c0,3,1.9,4.7,4.5,4.7c0.9,0,1.8-0.3,2.5-0.7l-0.2-0.4
			c-0.7,0.4-1.4,0.6-2.3,0.6c-2.4,0-4.1-1.6-4.1-4.3c0-3.2,2.3-5.3,4.8-5.3c2.3,0,3.8,1.5,3.8,3.8c0,1.9-1.1,3-1.9,3
			c-0.8,0-1.1-0.6-0.8-1.8l0.5-2.6h-0.5l-0.1,0.5h0c-0.3-0.4-0.6-0.7-1.1-0.7c-1.6,0-2.5,1.7-2.5,3c0,1.2,0.7,1.8,1.5,1.8
			c0.6,0,1.2-0.4,1.7-0.9h0c0.1,0.7,0.6,1,1.3,1c1.1,0,2.5-1.2,2.5-3.5c0-2.6-1.6-4.3-4.2-4.3C409.7,661.7,407.2,664,407.2,667.6z
			 M410.3,667.6c0-1.1,0.7-2.5,2-2.5c0.4,0,0.7,0.2,1,0.7l-0.4,2.3c-0.5,0.6-1,0.9-1.5,0.9C410.8,669,410.3,668.6,410.3,667.6z"/>
	</g>
</g>
</svg>
