<?xml version="1.0" encoding="utf-8"?>
<!-- Generator: Adobe Illustrator 16.2.1, SVG Export Plug-In . SVG Version: 6.00 Build 0)  -->
<!DOCTYPE svg PUBLIC "-//W3C//DTD SVG 1.1//EN" "http://www.w3.org/Graphics/SVG/1.1/DTD/svg11.dtd">
<svg version="1.1" id="Layer_1" xmlns="http://www.w3.org/2000/svg" xmlns:xlink="http://www.w3.org/1999/xlink" x="0px" y="0px"
	 width="1400px" height="900px" viewBox="0 0 1400 900" enable-background="new 0 0 1400 900" xml:space="preserve">
<rect fill="#E6E6E6" width="1400" height="900"/>
<g opacity="0.9">
	<rect opacity="0.5" fill="#D6D6D6" width="300" height="300"/>
	<rect x="299.999" y="600" opacity="0.5" fill="#EDEDED" width="300" height="300"/>
	<rect x="799.524" y="300" opacity="0.5" fill="#EDEDED" width="300.001" height="300"/>
	<rect x="1100.001" opacity="0.5" fill="#F0F0F0" width="299.999" height="300"/>
	<rect x="1099.525" y="600" opacity="0.5" fill="#EDEDED" width="298.999" height="299.771"/>
	<rect x="499.497" opacity="0.5" fill="#F2F2F2" width="300" height="300"/>
	<rect x="299.999" opacity="0.5" fill="#E0E0E0" width="199.498" height="199.498"/>
	<rect x="299.999" y="200.251" opacity="0.5" fill="#F2F2F2" width="199.498" height="199.499"/>
	<rect x="99.72" y="300.252" opacity="0.5" fill="#F0F0F0" width="200.499" height="199.498"/>
	<rect x="300.25" y="400.001" opacity="0.5" fill="#E0E0E0" width="199.5" height="199.498"/>
	<rect x="500.252" y="300.001" opacity="0.5" fill="#CCCCCC" width="199.498" height="199.498"/>
	<rect x="600.25" y="500.25" opacity="0.5" fill="#E8E8E8" width="199.5" height="199.498"/>
	<rect x="900.222" y="600.501" opacity="0.5" fill="#DBDBDB" width="199.498" height="199.498"/>
	<rect x="100.251" y="500.25" opacity="0.5" fill="#E6E6E6" width="199.499" height="199.498"/>
	<rect x="0.97" y="699.748" opacity="0.5" fill="#F0F0F0" width="198.5" height="200.022"/>
	<rect x="899.25" y="0.001" opacity="0.5" fill="#E8E8E8" width="199.498" height="199.498"/>
	<rect x="1100.25" y="399.75" opacity="0.5" fill="#DBDBDB" width="199.499" height="199.499"/>
</g>
</svg>
