<?xml version="1.0" encoding="utf-8"?>
<!-- Generator: Adobe Illustrator 18.1.1, SVG Export Plug-In . SVG Version: 6.00 Build 0)  -->
<svg version="1.1" id="Ebene_1" xmlns="http://www.w3.org/2000/svg" xmlns:xlink="http://www.w3.org/1999/xlink" x="0px" y="0px"
	 viewBox="0 0 29 6" enable-background="new 0 0 29 6" xml:space="preserve">
<g>
	<polygon fill="#575756" points="5.4,1.3 5.4,3.1 2.3,3.1 2.3,1.3 0.5,1.3 0.5,5.6 2.3,5.6 2.3,4.1 5.4,4.1 5.4,5.6 7.2,5.6 
		7.2,1.3 	"/>
	<g>
		<defs>
			<rect id="SVGID_1_" x="0.5" y="1.3" width="28" height="4.3"/>
		</defs>
		<clipPath id="SVGID_2_">
			<use xlink:href="#SVGID_1_"  overflow="visible"/>
		</clipPath>
		<path clip-path="url(#SVGID_2_)" fill="#575756" d="M13,2.4H8l0-1.1h5.5c0.3,0,0.6,0.1,0.8,0.3c0.2,0.2,0.4,0.5,0.4,0.8v2.1
			c0,0.3-0.1,0.6-0.4,0.8c-0.2,0.2-0.5,0.3-0.8,0.3H8l0-2.6h1.7l0,1.5H13V2.4z"/>
		<path clip-path="url(#SVGID_2_)" fill="#575756" d="M23.5,1.6c0.2,0.2,0.4,0.5,0.4,0.8v3.2h-1.7V2.4h-1.6v3.3h-1.7V2.4h-1.6v3.3
			h-1.7V1.3h7.3C23,1.3,23.3,1.4,23.5,1.6"/>
	</g>
	<polygon fill="#575756" points="24.6,1.3 24.6,5.6 26.4,5.6 26.4,4.1 26.4,3.7 26.4,3.1 26.4,1.3 	"/>
	<path fill="#575756" d="M26.4,0.4v0.1h0.2V1h0.1V0.5h0.2V0.4H26.4z M27.6,0.4l-0.2,0.4l-0.2-0.4h-0.2V1h0.1V0.5h0L27.4,1h0.1
		l0.2-0.5h0V1h0.1V0.4H27.6z"/>
</g>
</svg>
