<?xml version="1.0" encoding="utf-8"?>
<!-- Generator: Adobe Illustrator 18.1.1, SVG Export Plug-In . SVG Version: 6.00 Build 0)  -->
<svg version="1.1" id="Ebene_1" xmlns:sketch="http://www.bohemiancoding.com/sketch/ns"
	 xmlns="http://www.w3.org/2000/svg" xmlns:xlink="http://www.w3.org/1999/xlink" x="0px" y="0px" viewBox="44.5 -0.5 15 15"
	 enable-background="new 44.5 -0.5 15 15" xml:space="preserve">
<g id="Page-1" sketch:type="MSPage">
	<g id="icons" transform="translate(-480.000000, -660.000000)" sketch:type="MSArtboardGroup">
		<path id="Path" sketch:type="MSShapeGroup" fill="#666666" d="M536.2,665.8H535V664c0-2-1.3-3-3-3c-1.7,0-3,1-3,3v1.7h-1.2v7.7
			h8.5V665.8z M532.4,671.5h-0.7v-2.1c-0.3-0.1-0.5-0.4-0.5-0.8c0-0.5,0.4-0.9,0.9-0.9s0.9,0.4,0.9,0.9c0,0.3-0.2,0.6-0.5,0.8V671.5
			z M529.8,665.8V664c0-1.5,1-2.2,2.2-2.2c1.2,0,2.2,0.7,2.2,2.2v1.7H529.8z"/>
	</g>
</g>
</svg>
