<?xml version="1.0" encoding="utf-8"?>
<!-- Generator: Adobe Illustrator 18.1.1, SVG Export Plug-In . SVG Version: 6.00 Build 0)  -->
<svg version="1.1" id="Ebene_1" xmlns="http://www.w3.org/2000/svg" xmlns:xlink="http://www.w3.org/1999/xlink" x="0px" y="0px"
	 viewBox="0 0 40 40" enable-background="new 0 0 40 40" xml:space="preserve">
<g>
	<g>
		<g>
			<path fill="#666666" d="M29.8,10.8c-0.4-0.3-1.1-0.4-1.9-0.4h-1.7v4.1h1.7c1.7,0,2.6-0.7,2.6-2.1C30.4,11.6,30.2,11.1,29.8,10.8z
				"/>
			<path fill="#666666" d="M39.9,0H0.1C0,0,0,0,0,0.1v29c0,0.1,0,0.1,0.1,0.1h5.5c0.1,0,0.1,0,0.2,0h1.2c0.1,0,0.1,0,0.1,0.1l5,10.6
				c0,0,0.1,0,0.1,0l5-10.6c0,0,0.1-0.1,0.1-0.1h22.5c0.1,0,0.1,0,0.1-0.1L39.9,0C40,0,40,0,39.9,0z M17,10.5h-3.4v10h-2.1v-10H8.2
				V8.7H17V10.5z M21.1,20.5H19V8.7h2.1V20.5z M32.1,14.1c-0.2,0.5-0.5,0.9-0.9,1.2s-0.9,0.6-1.4,0.7c-0.5,0.1-1.1,0.2-1.8,0.2h-1.9
				v4.3H24V8.7H28c0.6,0,1.2,0.1,1.8,0.2c0.5,0.1,1,0.3,1.4,0.6c0.4,0.3,0.7,0.7,0.9,1.1c0.2,0.5,0.3,1,0.3,1.7
				C32.5,13,32.4,13.6,32.1,14.1z"/>
		</g>
	</g>
</g>
</svg>
