<?xml version="1.0" encoding="utf-8"?>
<!-- Generator: Adobe Illustrator 18.1.1, SVG Export Plug-In . SVG Version: 6.00 Build 0)  -->
<svg version="1.1" id="Ebene_1" xmlns="http://www.w3.org/2000/svg" xmlns:xlink="http://www.w3.org/1999/xlink" x="0px" y="0px"
	 viewBox="0 0 60 60" enable-background="new 0 0 60 60" xml:space="preserve">
<rect fill="#059939" width="60" height="60"/>
<g>
	<polygon fill="#FFFFFF" points="13.8,17.6 15.5,17.6 15.5,40.8 18.7,40.8 18.7,17.6 20.3,17.6 20.3,46.7 18.7,46.7 18.7,42.4 
		13.8,42.4 	"/>
	<polygon fill="#FFFFFF" points="23.1,17.6 29.8,17.6 29.8,30 28.1,30 28.1,19.3 24.9,19.3 24.9,40.8 29.8,40.8 29.8,42.4 
		23.1,42.4 	"/>
	<polygon fill="#FFFFFF" points="32.5,13.3 34.2,13.3 34.2,17.6 38.2,17.6 38.2,19.3 34.2,19.3 34.2,40.8 38.2,40.8 38.2,42.4 
		32.5,42.4 	"/>
	<polygon fill="#FFFFFF" points="40.1,17.6 41.8,17.6 41.8,40.8 45.1,40.8 45.1,17.6 46.8,17.6 46.8,42.4 40.1,42.4 	"/>
</g>
</svg>
